<?xml version="1.0" encoding="utf-8"?>
<!-- Generator: Adobe Illustrator 27.4.0, SVG Export Plug-In . SVG Version: 6.00 Build 0)  -->
<svg version="1.1" id="Camada_2_00000067205934709162999560000017116031982723319717_"
	 xmlns="http://www.w3.org/2000/svg" xmlns:xlink="http://www.w3.org/1999/xlink" x="0px" y="0px" viewBox="0 0 16 10.9"
	 style="enable-background:new 0 0 16 10.9;" xml:space="preserve">
<style type="text/css">
	.st0{fill:#009FDF;}
	.st1{fill:#FFCC00;}
</style>
<g id="Camada_2-2">
	<g>
		<ellipse class="st0" cx="8" cy="5.4" rx="8" ry="5.4"/>
		<path class="st1" d="M8.1,9.5c-1.3,0-2.3-0.2-2.8-0.8C4.9,8.3,4.6,7.7,4.5,7l2-0.1c0.1,0.3,0.2,0.6,0.3,0.8
			c0.3,0.4,0.7,0.6,1.3,0.6c0.4,0,0.7-0.1,1-0.3c0.2-0.2,0.4-0.5,0.4-0.8S9.4,6.7,9.1,6.5C8.9,6.3,8.5,6.1,7.7,6
			C6.6,5.7,5.9,5.4,5.4,5C5,4.7,4.8,4.2,4.8,3.6c0-0.4,0.1-0.8,0.3-1.1c0.2-0.3,0.6-0.6,1-0.8c0.4-0.2,1.1-0.3,1.9-0.3
			c1,0,1.8,0.2,2.3,0.5c0.4,0.3,0.7,0.8,0.9,1.5l-2,0.1C9.1,3.2,9,3,8.8,2.8c-0.2-0.2-0.6-0.3-1-0.3C7.5,2.5,7.2,2.6,7,2.8
			C6.8,2.9,6.7,3.1,6.7,3.4c0,0.2,0.1,0.3,0.2,0.5C7.1,4,7.4,4.1,7.9,4.2C9,4.5,9.8,4.7,10.3,4.9c0.4,0.2,0.8,0.5,1,0.8
			c0.2,0.3,0.3,0.7,0.3,1.1c0,0.5-0.1,0.9-0.4,1.3C10.9,8.6,10.5,9,10,9.2C9.5,9.4,8.9,9.5,8.1,9.5z"/>
	</g>
</g>
</svg>
